<svg viewBox="0 0 148 148" xmlns="http://www.w3.org/2000/svg" xmlns:bx="https://boxy-svg.com">
  <defs>
    <bx:grid x="0" y="0" width="32" height="32"></bx:grid>
  </defs>
  <ellipse style="fill: rgba(249, 130, 18, 0); stroke: rgb(249, 128, 18); stroke-width: 8px;" cx="73.135" cy="73.598" rx="67.135" ry="68.598"></ellipse>
  <g transform="matrix(1, 0, 0, 1, 9, 7)">
    <path d="M 0.856 22.519 L 4.626 22.519 L 7.804 29.095 L 10.966 22.519 L 14.736 22.519 L 14.736 34.37 L 11.642 34.37 L 11.642 27.337 L 8.937 33.203 L 6.655 33.203 L 3.95 27.337 L 3.95 34.37 L 0.856 34.37 Z M 21.909 22.519 Q 23.363 22.519 24.529 22.941 Q 25.696 23.364 26.533 24.142 Q 27.369 24.919 27.826 26.01 Q 28.282 27.1 28.282 28.436 Q 28.282 29.772 27.826 30.862 Q 27.369 31.952 26.507 32.739 Q 25.645 33.525 24.453 33.947 Q 23.261 34.37 21.79 34.37 L 16.719 34.37 L 16.719 22.519 Z M 22.01 31.614 Q 22.619 31.614 23.101 31.386 Q 23.582 31.158 23.946 30.744 Q 24.309 30.329 24.504 29.755 Q 24.698 29.18 24.698 28.47 Q 24.698 27.76 24.495 27.176 Q 24.292 26.593 23.912 26.162 Q 23.532 25.731 23.008 25.511 Q 22.484 25.291 21.841 25.291 L 20.235 25.291 L 20.235 31.614 Z M 29.598 22.519 L 33.115 22.519 L 33.115 31.428 L 38.085 31.428 L 38.085 34.37 L 29.598 34.37 Z" transform="matrix(2.525918, 0, 0, 2.839216, 16.055286, -36.435661)" style="fill: rgb(249, 128, 18); line-height: 27.0497px; white-space: pre;"></path>
    <path d="M 45.118 93.444 Q 44.704 92.823 44.095 92.49 Q 43.485 92.156 42.68 92.156 Q 41.944 92.156 41.381 92.536 Q 40.817 92.915 40.507 93.605 Q 40.196 94.295 40.196 95.215 Q 40.196 96.135 40.507 96.825 Q 40.817 97.515 41.381 97.906 Q 41.944 98.297 42.68 98.297 Q 43.508 98.297 44.118 97.952 Q 44.727 97.607 45.118 96.871 L 48.131 98.596 Q 47.395 99.999 45.923 100.77 Q 44.451 101.54 42.473 101.54 Q 40.564 101.54 39.115 100.758 Q 37.666 99.976 36.873 98.55 Q 36.079 97.124 36.079 95.238 Q 36.079 93.306 36.884 91.869 Q 37.689 90.431 39.138 89.638 Q 40.587 88.844 42.519 88.844 Q 44.382 88.844 45.831 89.592 Q 47.28 90.339 48.085 91.719 Z M 55.44 88.844 Q 57.487 88.844 59.017 89.626 Q 60.546 90.408 61.397 91.834 Q 62.248 93.26 62.248 95.169 Q 62.248 97.078 61.397 98.516 Q 60.546 99.953 59.017 100.747 Q 57.487 101.54 55.44 101.54 Q 53.393 101.54 51.864 100.747 Q 50.334 99.953 49.495 98.516 Q 48.655 97.078 48.655 95.169 Q 48.655 93.26 49.495 91.834 Q 50.334 90.408 51.864 89.626 Q 53.393 88.844 55.44 88.844 Z M 55.44 92.087 Q 54.635 92.087 54.037 92.478 Q 53.439 92.869 53.106 93.582 Q 52.772 94.295 52.772 95.238 Q 52.772 96.181 53.106 96.883 Q 53.439 97.584 54.037 97.975 Q 54.635 98.366 55.44 98.366 Q 56.245 98.366 56.855 97.975 Q 57.464 97.584 57.798 96.883 Q 58.131 96.181 58.131 95.238 Q 58.131 94.295 57.798 93.582 Q 57.464 92.869 56.855 92.478 Q 56.245 92.087 55.44 92.087 Z M 69.029 88.821 Q 70.616 88.821 71.743 89.592 Q 72.87 90.362 73.491 91.788 Q 74.112 93.214 74.112 95.146 Q 74.112 97.101 73.514 98.55 Q 72.916 99.999 71.801 100.781 Q 70.685 101.563 69.121 101.563 Q 67.373 101.563 66.062 100.758 Q 64.751 99.953 64.038 98.504 Q 63.325 97.055 63.325 95.123 Q 63.325 93.214 64.027 91.811 Q 64.728 90.408 66.028 89.615 Q 67.327 88.821 69.029 88.821 Z M 70.133 92.087 Q 69.328 92.087 68.719 92.478 Q 68.109 92.869 67.776 93.582 Q 67.442 94.295 67.442 95.238 Q 67.442 96.181 67.776 96.883 Q 68.109 97.584 68.719 97.987 Q 69.328 98.389 70.133 98.389 Q 70.938 98.389 71.536 97.987 Q 72.134 97.584 72.468 96.883 Q 72.801 96.181 72.801 95.238 Q 72.801 94.295 72.468 93.582 Q 72.134 92.869 71.536 92.478 Q 70.938 92.087 70.133 92.087 Z M 72.801 84.336 L 76.895 84.336 L 76.895 101.402 L 72.801 101.402 Z M 87.93 94.111 Q 87.953 93.352 87.666 92.812 Q 87.378 92.271 86.849 91.972 Q 86.32 91.673 85.63 91.673 Q 84.825 91.673 84.262 92.099 Q 83.698 92.524 83.388 93.272 Q 83.077 94.019 83.077 95.008 Q 83.077 96.089 83.445 96.871 Q 83.813 97.653 84.492 98.079 Q 85.17 98.504 86.067 98.504 Q 87.723 98.504 88.988 97.239 L 91.127 99.355 Q 90.184 100.39 88.816 100.965 Q 87.447 101.54 85.699 101.54 Q 83.675 101.54 82.192 100.758 Q 80.708 99.976 79.915 98.55 Q 79.121 97.124 79.121 95.238 Q 79.121 93.306 79.926 91.869 Q 80.731 90.431 82.203 89.638 Q 83.675 88.844 85.607 88.844 Q 87.792 88.844 89.23 89.753 Q 90.667 90.661 91.346 92.34 Q 92.024 94.019 91.886 96.273 L 82.502 96.273 L 82.502 94.111 Z" transform="matrix(1.61953, 0, 0, 1.764327, -38.911694, -71.277367)" style="fill: rgb(249, 128, 18); white-space: pre;"></path>
  </g>
</svg>